<?xml version="1.0" encoding="UTF-8" standalone="no"?>
<!-- Created with Inkscape (http://www.inkscape.org/) -->
<svg
   xmlns:svg="http://www.w3.org/2000/svg"
   xmlns="http://www.w3.org/2000/svg"
   xmlns:xlink="http://www.w3.org/1999/xlink"
   version="1.0"
   width="480"
   height="478"
   id="svg2489">
  <defs
     id="defs2492" />
  <g
     id="layer3"
     style="display:none">
    <image
       xlink:href="site_classe.png"
       x="0.20353739"
       y="0.29515076"
       width="480"
       height="478"
       id="image2498" />
  </g>
  <g
     id="layer4"
     style="display:none">
    <path
       d="M 19.116232,18.14843 L 465.69264,18.679437 L 465.16163,462.60081 L 19.647238,462.60082 L 19.116232,18.14843 z"
       id="path3352"
       style="fill:#6a5200;fill-opacity:1;fill-rule:evenodd;stroke:none;stroke-width:1px;stroke-linecap:butt;stroke-linejoin:miter;stroke-opacity:1" />
  </g>
  <g
     id="g2525"
     style="fill:#6a5200;fill-opacity:1;stroke:none;stroke-opacity:1">
    <path
       d="M 70.092849,141.34192 L 114.69739,115.85361 L 199.12741,262.9424 L 70.092849,141.34192 z"
       id="path2501"
       style="fill:#6a5200;fill-opacity:1;fill-rule:evenodd;stroke:none;stroke-width:1px;stroke-linecap:butt;stroke-linejoin:miter;stroke-opacity:1" />
    <path
       d="M 155.05388,92.489331 L 199.65842,67.001022 L 199.65842,263.4734 L 155.05388,92.489331 z"
       id="path2503"
       style="fill:#6a5200;fill-opacity:1;fill-rule:evenodd;stroke:none;stroke-width:1px;stroke-linecap:butt;stroke-linejoin:miter;stroke-opacity:1" />
    <path
       d="M 241.07692,41.512713 L 286.21247,68.063035 L 201.78245,212.49678 L 241.07692,41.512713 z"
       id="path2505"
       style="fill:#6a5200;fill-opacity:1;fill-rule:evenodd;stroke:none;stroke-width:1px;stroke-linecap:butt;stroke-linejoin:miter;stroke-opacity:1" />
    <path
       d="M 328.69298,91.427318 L 373.29752,116.38462 L 203.90647,212.49678 L 328.69298,91.427318 z"
       id="path2507"
       style="fill:#6a5200;fill-opacity:1;fill-rule:evenodd;stroke:none;stroke-width:1px;stroke-linecap:butt;stroke-linejoin:miter;stroke-opacity:1" />
    <path
       d="M 414.18502,140.81091 L 415.24703,191.78753 L 247.449,191.25653 L 414.18502,140.81091 z"
       id="path2509"
       style="fill:#6a5200;fill-opacity:1;fill-rule:evenodd;stroke:none;stroke-width:1px;stroke-linecap:butt;stroke-linejoin:miter;stroke-opacity:1" />
    <path
       d="M 413.65401,239.04711 L 414.71602,292.14775 L 246.38698,193.38055 L 413.65401,239.04711 z"
       id="path2511"
       style="fill:#6a5200;fill-opacity:1;fill-rule:evenodd;stroke:none;stroke-width:1px;stroke-linecap:butt;stroke-linejoin:miter;stroke-opacity:1" />
    <path
       d="M 370.11148,365.42664 L 286.74348,218.86886 L 414.18502,339.93833 L 370.11148,365.42664 z"
       id="path2513"
       style="fill:#6a5200;fill-opacity:1;fill-rule:evenodd;stroke:none;stroke-width:1px;stroke-linecap:butt;stroke-linejoin:miter;stroke-opacity:1" />
    <path
       d="M 329.22399,388.79092 L 283.55743,414.27923 L 285.15046,220.99288 L 329.22399,388.79092 z"
       id="path2515"
       style="fill:#6a5200;fill-opacity:1;fill-rule:evenodd;stroke:none;stroke-width:1px;stroke-linecap:butt;stroke-linejoin:miter;stroke-opacity:1" />
    <path
       d="M 197.53439,412.1552 L 282.49542,267.72146 L 242.66994,438.17452 L 197.53439,412.1552 z"
       id="path2517"
       style="fill:#6a5200;fill-opacity:1;fill-rule:evenodd;stroke:none;stroke-width:1px;stroke-linecap:butt;stroke-linejoin:miter;stroke-opacity:1" />
    <path
       d="M 110.98034,362.77161 L 281.43341,266.65944 L 156.11589,388.79092 L 110.98034,362.77161 z"
       id="path2519"
       style="fill:#6a5200;fill-opacity:1;fill-rule:evenodd;stroke:none;stroke-width:1px;stroke-linecap:butt;stroke-linejoin:miter;stroke-opacity:1" />
    <path
       d="M 69.561842,341.00034 L 69.030836,286.83768 L 241.60793,288.4307 L 69.561842,341.00034 z"
       id="path2521"
       style="fill:#6a5200;fill-opacity:1;fill-rule:evenodd;stroke:none;stroke-width:1px;stroke-linecap:butt;stroke-linejoin:miter;stroke-opacity:1" />
    <path
       d="M 69.561842,240.10912 L 70.092849,188.6015 L 239.4839,287.89969 L 69.561842,240.10912 z"
       id="path2523"
       style="fill:#6a5200;fill-opacity:1;fill-rule:evenodd;stroke:none;stroke-width:1px;stroke-linecap:butt;stroke-linejoin:miter;stroke-opacity:1" />
  </g>
  <g
     id="layer2"
     style="display:inline" />
</svg>
